<?xml version="1.0" encoding="utf-8"?>
<!-- Generator: Adobe Illustrator 16.0.0, SVG Export Plug-In . SVG Version: 6.00 Build 0)  -->
<!DOCTYPE svg PUBLIC "-//W3C//DTD SVG 1.1//EN" "http://www.w3.org/Graphics/SVG/1.1/DTD/svg11.dtd">
<svg version="1.1" id="Layer_1" xmlns="http://www.w3.org/2000/svg" xmlns:xlink="http://www.w3.org/1999/xlink" x="0px" y="0px"
	 width="380px" height="380px" viewBox="0 0 380 380" enable-background="new 0 0 380 380" xml:space="preserve">
<g>
	<path fill="#E4E4E4" d="M86.843,205.565c0.023,0.021,0.051,0.033,0.072,0.061c0.016-0.021,0.033-0.037,0.049-0.059
		C86.924,205.567,86.884,205.567,86.843,205.565z"/>
	<path fill="#E4E4E4" d="M104.584,128.343c0.029-0.004,0.062-0.021,0.091-0.025c-0.011-0.002-0.022,0-0.033-0.002
		C104.622,128.326,104.603,128.336,104.584,128.343z"/>
	<path fill="#E4E4E4" d="M295.484,297.483c-0.139-0.303-0.262-0.611-0.373-0.928C295.184,296.885,295.311,297.198,295.484,297.483z"
		/>
	<path fill="#E4E4E4" d=""/>
	<path fill="#E4E4E4" d=""/>
	<path fill="#E4E4E4" d=""/>
	<g>
		<path fill="#E4E4E4" d="M57.622,313.754C57.302,314.174,58.054,313.653,57.622,313.754L57.622,313.754z"/>
		<path fill="#E4E4E4" d=""/>
	</g>
	<path fill="#E4E4E4" d=""/>
	<path fill="#E4E4E4" d=""/>
	<path fill="#E4E4E4" d=""/>
	<path fill="#E4E4E4" d=""/>
	<path fill="#E4E4E4" d=""/>
	<path fill="#E4E4E4" d=""/>
	<path fill="#E4E4E4" d=""/>
	<path fill="#E4E4E4" d=""/>
	<path fill="#E4E4E4" d="M367.945,49.586c3.49,1.676,4.021-3.596,7.051-3.004c2.049-4.086-1.387-2.658-3.039-3.023
		C369.6,44.887,367.551,46.424,367.945,49.586z"/>
	<path fill="#E4E4E4" d=""/>
	<path fill="#E4E4E4" d=""/>
	<path fill="#E4E4E4" d=""/>
	<path fill="#E4E4E4" d=""/>
	<path fill="#E4E4E4" d=""/>
	<path fill="#E4E4E4" d=""/>
	<path fill="#E4E4E4" d=""/>
	<path fill="#E4E4E4" d=""/>
	<path fill="#E4E4E4" d=""/>
	<path fill="#E4E4E4" d=""/>
	<path fill="#E4E4E4" d=""/>
</g>
</svg>
